<svg width="116" height="99" viewBox="0 0 116 99" fill="none" xmlns="http://www.w3.org/2000/svg">
<path d="M88.5611 78.1781H68.4058V71.4596H88.5611V51.3044H95.2795V71.4596H115.435V78.1781H95.2795V98.3333H88.5611V78.1781Z" fill="#2c1434"/>
<path fill-rule="evenodd" clip-rule="evenodd" d="M8.55072 42.7536V89.7826H76.9565V81.2319L68.4058 81.2319L64.1304 81.2319L47.029 81.2319V42.7536H68.4058V68.4058H76.9565V42.7536H85.5072V17.1014H63.2754C63.5604 16.3889 63.7741 15.6941 63.9167 15.0172C64.0592 14.3403 64.1304 13.6099 64.1304 12.8261C64.1304 9.26328 62.8834 6.2349 60.3895 3.74094C57.8955 1.24698 54.8671 0 51.3043 0C49.6655 0 48.1334 0.285024 46.7083 0.855072C45.2832 1.42512 43.965 2.28019 42.7536 3.42029C41.5423 2.35145 40.224 1.51419 38.7989 0.908514C37.3738 0.302838 35.8418 0 34.2029 0C30.6401 0 27.6117 1.24698 25.1178 3.74094C22.6238 6.2349 21.3768 9.26328 21.3768 12.8261C21.3768 13.6099 21.4303 14.3581 21.5371 15.0707C21.644 15.7832 21.8756 16.4601 22.2319 17.1014H0V42.7536H8.55072ZM48.2581 9.77989C49.0776 8.96045 50.093 8.55072 51.3043 8.55072C52.5157 8.55072 53.5311 8.96045 54.3505 9.77989C55.17 10.5993 55.5797 11.6147 55.5797 12.8261C55.5797 14.0374 55.17 15.0528 54.3505 15.8723C53.5311 16.6917 52.5157 17.1014 51.3043 17.1014C50.093 17.1014 49.0776 16.6917 48.2581 15.8723C47.4387 15.0528 47.029 14.0374 47.029 12.8261C47.029 11.6147 47.4387 10.5993 48.2581 9.77989ZM31.1567 15.8723C30.3373 15.0528 29.9275 14.0374 29.9275 12.8261C29.9275 11.6147 30.3373 10.5993 31.1567 9.77989C31.9761 8.96045 32.9915 8.55072 34.2029 8.55072C35.4142 8.55072 36.4296 8.96045 37.2491 9.77989C38.0685 10.5993 38.4783 11.6147 38.4783 12.8261C38.4783 14.0374 38.0685 15.0528 37.2491 15.8723C36.4296 16.6917 35.4142 17.1014 34.2029 17.1014C32.9915 17.1014 31.9761 16.6917 31.1567 15.8723ZM8.55072 34.2029V25.6522H38.4783V34.2029H8.55072ZM38.4783 42.7536V81.2319H17.1014V42.7536H38.4783ZM76.9565 25.6522V34.2029H47.029V25.6522H76.9565Z" fill="#2c1434"/>
</svg>
