<!--?xml version="1.0" encoding="utf-8"?-->
<!-- Generator: Adobe Illustrator 18.1.1, SVG Export Plug-In . SVG Version: 6.00 Build 0)  -->

<svg version="1.1" id="_x32_" xmlns="http://www.w3.org/2000/svg" xmlns:xlink="http://www.w3.org/1999/xlink" x="0px" y="0px" viewBox="0 0 512 512" style="width: 256px; height: 256px; opacity: 1;" xml:space="preserve">
<style type="text/css">
	.st0{fill:#525252;}
</style>
<g>
	<path class="st0" d="M443.415,395.057c0,0-8.278-36.861-14.294-54.164c-6.017-17.304-34.607-9.033-34.607-9.033l-4.509-22.566
		l21.066-42.131c0,0,27.082,6.017,43.624,6.77c16.556,0.754,18.739-9.764,15.802-19.557c-6.77-22.573-36.106-60.942-36.106-60.942
		c9.75-76.413-18.366-123.936-70.85-145.942l24.641-5.04l-10.338-26.328l-44.328,20.491L299.813,0l-17.289,22.386l15.795,11.121
		c-2.024-0.122-4.064-0.23-6.117-0.309c-96.294-3.762-131.662,92.532-131.662,92.532s-36.107,21.812-52.656,30.845
		c-16.55,9.024-15.803,15.795-11.287,21.811c4.516,6.024,60.942,4.516,60.942,4.516s1.5,18.057,1.5,23.327
		c0,5.262-17.303,28.582-30.09,44.385c-8.034,9.922,4.509,18.05,22.573,19.557c12.938,1.077,12.034,12.788,8.271,18.058
		c-1.213,1.701-0.854,3.64,0.18,5.614c-5.809,2.513-12.73,6.311-21.238,12.292c-24.634,17.303-45.146,41.872-45.146,41.872
		l-1.616-13.964c0.187-0.402,0.309-0.804,0.309-1.22c0-4.552-11.301-8.235-25.244-8.235c-13.936,0-25.244,3.683-25.244,8.235
		c-1.4,10.288-2.757,26.407,0.122,36.81c3.899,14.122,25.531,25.84,48.37,14.122c22.832-11.717,21.474-28.503,57.438-59.311
		c4.66-4,9.434-7.762,14.145-11.165c-0.524,1.005-0.848,2.118-0.568,3.533c2.284,11.459,8.688,4.042,11.28,15.048
		c3.008,12.795-3.755,36.115,15.049,39.122c18.804,3.008,47.394-6.024,47.394-6.024l12.794,37.622l-24.081,48.147
		c0,0-18.121,17.16-32.825,61.272c154.393-62.492,264.673-36.76,279.377-73.52C479.45,415.583,443.415,395.057,443.415,395.057z" style="fill: rgb(75, 75, 75);"></path>
</g>
</svg>
